<svg height="493pt" viewBox="0 -15 493.12952 493" width="493pt" xmlns="http://www.w3.org/2000/svg"><path d="m441.933594 346.015625c12.496094-.003906 24.410156 5.285156 32.789062 14.558594 8.375 9.273437 12.4375 21.660156 11.171875 34.089843v60.789063l-187.539062.03125v-60.820313c-1.261719-12.433593 2.804687-24.820312 11.183593-34.089843 8.382813-9.269531 20.296876-14.5625 32.792969-14.558594h12.113281l6.988282 15.828125c5.132812 12.375 17.101562 20.546875 30.496094 20.820312 13.394531.273438 25.683593-7.394531 31.324218-19.550781l7.941406-17.097656zm0 0" fill="#00acea"/><path d="m433.171875 265.394531v19.449219c0 23.492188-19.042969 42.535156-42.53125 42.535156-23.492187 0-42.535156-19.042968-42.535156-42.535156v-2.109375h.269531c14.609375-6.757813 27.726562-16.359375 38.589844-28.238281 11.46875 5.597656 26.597656 10.070312 46.207031 10.898437zm0 0" fill="#00acea"/><path d="m386.964844 254.496094c-20.890625-10.171875-29.609375-24.0625-31-26.460938 4.953125-6.972656 11.890625-12.289062 19.910156-15.261718v-.007813c13.054688-4.824219 27.640625-2.957031 39.0625 4.996094 11.421875 7.949219 18.230469 20.984375 18.234375 34.902343v12.730469c-19.609375-.828125-34.738281-5.300781-46.207031-10.898437zm0 0" fill="#4b5d63"/><path d="m412.464844 197.535156c.007812 5.695313-2.257813 11.160156-6.292969 15.179688l-.117187.300781c-9.695313-3.753906-20.425782-3.839844-30.179688-.25-6.902344-6.851563-8.335938-17.488281-3.492188-25.921875 4.84375-8.4375 14.75-12.558594 24.148438-10.054688 9.398438 2.507813 15.933594 11.019532 15.933594 20.746094zm0 0" fill="#d4e1f4"/><path d="m355.964844 228.035156c1.390625 2.398438 10.109375 16.289063 31 26.460938-10.863282 11.878906-23.980469 21.480468-38.589844 28.238281h-.269531c.019531-7.589844.089843-33.128906.207031-34.320313.730469-7.34375 3.367188-14.371093 7.652344-20.378906zm0 0" fill="#4b5d63"/><path d="m300.984375 117.765625h-95.871094v-110.699219h152.941407v136.667969l-36.242188-25.96875zm0 0" fill="#00efd1"/><path d="m300.984375 117.765625v28.539063h-116.691406l-36.238281 25.960937v-136.671875h57.058593v82.171875zm0 0" fill="#fedb41"/><path d="m150.804688 311.054688c12.492187-.003907 24.40625 5.285156 32.78125 14.554687 8.378906 9.269531 12.441406 21.65625 11.179687 34.085937v95.769532l-187.542969.019531v-95.789063c-1.253906-12.433593 2.8125-24.816406 11.191406-34.085937 8.382813-9.265625 20.292969-14.554687 32.789063-14.554687h12.109375l15.640625 59.960937 16.320313-31.5h10.140624l17.628907 31.5h.011719l17.007812-59.960937zm0 0" fill="#00efd1"/><path d="m142.042969 212.523438v37.359374c.027343 23.363282-18.792969 42.371094-42.152344 42.582032-23.359375.207031-42.515625-18.464844-42.90625-41.820313h.128906s14.832031-32.878906 45.980469-37.167969c12.585938 4.910157 26.617188 4.566407 38.949219-.953124zm0 0" fill="#00efd1"/><path d="m103.09375 213.476562c-24.921875-9.273437-41.371094-34.050781-41.371094-34.050781v-.011719c1.070313-.488281 2.226563-.738281 3.402344-.738281h45.457031c17.375 0 31.460938 14.085938 31.460938 31.457031v2.390626c-12.332031 5.519531-26.363281 5.863281-38.949219.953124zm0 0" fill="#4b5d63"/><path d="m103.09375 213.476562c-31.148438 4.289063-45.980469 37.167969-45.980469 37.167969h-.128906c-.011719-.25-.011719-.511719-.011719-.761719v-63.058593c0-3.183594 1.855469-6.078125 4.75-7.410157v.011719s16.449219 24.777344 41.371094 34.050781zm0 0" fill="#4b5d63"/><g fill="#083863"><path d="m150.804688 304.054688h-10.742188c-3.128906 0-5.878906 2.078124-6.734375 5.089843l-12.40625 43.742188-7.921875-14.148438 7.601562-24.292969c.664063-2.125.28125-4.441406-1.039062-6.234374-1.320312-1.796876-3.414062-2.855469-5.640625-2.855469h-27.15625c-2.230469 0-4.324219 1.058593-5.644531 2.855469-1.316406 1.792968-1.703125 4.109374-1.039063 6.238281l7.648438 24.40625-6.605469 12.75-11.039062-42.316407c-.804688-3.082031-3.589844-5.234374-6.773438-5.234374h-12.109375c-14.410156 0-28.15625 6.074218-37.859375 16.726562-9.703125 10.65625-14.464844 24.90625-13.121094 39.253906v95.449219c0 3.867187 3.136719 7 7 7l187.542969-.019531c3.863281 0 7-3.132813 7-7v-95.425782c1.351563-14.347656-3.40625-28.601562-13.105469-39.257812-9.703125-10.65625-23.445312-16.730469-37.855468-16.726562zm-46.40625 15.300781-4.050782 12.941406-4.054687-12.941406zm83.398437 39.628906c-.023437.238281-.035156.472656-.035156.710937v88.769532l-173.539063.019531v-88.789063c0-.238281-.011718-.472656-.035156-.707031-1.058594-10.464843 2.367188-20.886719 9.417969-28.6875 7.054687-7.796875 17.082031-12.25 27.597656-12.246093h6.699219l14.277344 54.726562c.730468 2.804688 3.113281 4.867188 5.992187 5.191406 2.882813.320313 5.664063-1.164062 6.996094-3.738281l14.359375-27.71875h1.78125l15.625 27.917969c1.382812 2.46875 4.117187 3.863281 6.929687 3.53125 2.8125-.328125 5.148438-2.316406 5.921875-5.039063l15.566406-54.871093h5.449219c10.515625-.003907 20.542969 4.445312 27.59375 12.246093s10.46875 18.222657 9.40625 28.683594zm0 0"/><path d="m64.484375 284.90625c14.164063 14.164062 35.46875 18.40625 53.980469 10.738281 18.507812-7.664062 30.578125-25.726562 30.578125-45.761719v-39.75c-.019531-21.230468-17.226563-38.4375-38.460938-38.457031h-45.457031c-2.175781.003907-4.328125.472657-6.308594 1.371094l-.023437.011719c-5.367188 2.480468-8.808594 7.851562-8.820313 13.765625v63.0625c0 .3125 0 .636719.011719.949219.214844 12.808593 5.417969 25.03125 14.5 34.070312zm20.363281-73.03125c-7.929687 4.027344-15.015625 9.535156-20.875 16.226562v-34.589843c6.152344 6.980469 13.167969 13.152343 20.875 18.363281zm14.667969 73.539062c-18.664063.003907-34.144531-14.429687-35.453125-33.046874 2.738281-5.324219 15.480469-27.625 38.417969-31.691407 6.136719 2.128907 12.578125 3.234375 19.074219 3.265625 4.546874-.011718 9.078124-.574218 13.488281-1.679687v27.621093c-.023438 19.613282-15.914063 35.507813-35.527344 35.53125zm35.410156-77.667968c-9.597656 3.132812-19.984375 2.839844-29.390625-.832032-12.625-4.699218-23.03125-13.984374-29.738281-21.238281h34.785156c12.578125.015625 23.097657 9.554688 24.34375 22.070313zm0 0"/><path d="m441.933594 339.015625h-10.738282c-2.726562 0-5.203124 1.578125-6.351562 4.050781l-7.9375 17.101563c-4.472656 9.628906-14.214844 15.703125-24.828125 15.488281-10.613281-.21875-20.097656-6.6875-24.171875-16.488281-.023438-.050781-.042969-.101563-.0625-.148438l-6.992188-15.828125c-1.117187-2.535156-3.628906-4.171875-6.398437-4.171875h-12.109375c-14.414062-.003906-28.160156 6.070313-37.863281 16.730469-9.703125 10.65625-14.464844 24.910156-13.117188 39.257812v60.480469c0 3.867188 3.132813 7 7 7l187.539063-.03125c3.867187 0 7-3.132812 7-7v-60.449219c1.355468-14.351562-3.402344-28.605468-13.105469-39.265624-9.703125-10.660157-23.449219-16.730469-37.863281-16.726563zm37 54.941406c-.023438.234375-.035156.472657-.035156.707031v53.792969l-173.539063.027344v-53.820313c0-.234374-.011719-.472656-.039063-.707031-1.058593-10.464843 2.363282-20.886719 9.417969-28.6875 7.054688-7.804687 17.082031-12.257812 27.597657-12.253906h7.550781l5.117187 11.585937c6.222656 14.914063 20.667969 24.742188 36.820313 25.058594 16.15625.316406 30.976562-8.9375 37.777343-23.597656l6.058594-13.046875h6.273438c10.519531-.003906 20.542968 4.449219 27.597656 12.25 7.050781 7.804687 10.46875 18.230469 9.402344 28.691406zm0 0"/><path d="m365.410156 210.03125c-13.550781 8.027344-22.480468 22.011719-24.0625 37.679688-.0625.621093-.15625 1.558593-.242187 35.023437v2.109375c0 27.359375 22.175781 49.535156 49.535156 49.535156 27.355469 0 49.53125-22.175781 49.53125-49.535156v-32.179688c-.003906-17.273437-9.007813-33.300781-23.761719-42.289062 6.023438-11.933594 2.933594-26.449219-7.429687-34.894531-10.363281-8.445313-25.203125-8.542969-35.675781-.238281-10.472657 8.308593-13.757813 22.78125-7.894532 34.792968zm-10.117187 38.945312c.285156-2.707031.882812-5.371093 1.78125-7.941406 5.390625 5.867188 11.574219 10.949219 18.375 15.101563-6.222657 5.753906-13.03125 10.839843-20.308594 15.175781.058594-17.71875.125-21.566406.152344-22.335938zm35.351562 71.398438c-18.683593.003906-34.175781-14.460938-35.449219-33.101562 12.339844-6.3125 23.605469-14.527344 33.390626-24.347657 11.96875 4.988281 24.65625 8.035157 37.585937 9.035157v12.890624c-.023437 19.609376-15.917969 35.5-35.527344 35.523438zm35.527344-67.710938v5.226563c-12.53125-1.035156-24.773437-4.316406-36.144531-9.691406-13.636719-6.636719-21.546875-14.960938-25.320313-19.796875 3.757813-4.042969 8.414063-7.144532 13.589844-9.054688l-2.425781-6.574218 2.425781 6.5625c10.90625-4.03125 23.09375-2.472657 32.636719 4.171874 9.542968 6.640626 15.234375 17.53125 15.238281 29.15625zm-35.179687-69.597656c5.183593-.007812 9.976562 2.761719 12.554687 7.257813 2.578125 4.5 2.554687 10.03125-.070313 14.503906-8.199218-2.203125-16.828124-2.257813-25.058593-.164063-1.242188-2.167968-1.894531-4.628906-1.894531-7.128906.007812-7.988281 6.480468-14.460937 14.46875-14.46875zm0 0"/><path d="m233.082031 44.304688h31.382813c3.863281 0 7-3.132813 7-7 0-3.867188-3.136719-7-7-7h-31.382813c-3.863281 0-7 3.132812-7 7 0 3.867187 3.136719 7 7 7zm0 0"/><path d="m330.09375 92.816406c3.867188 0 7-3.136718 7-7 0-3.867187-3.132812-7-7-7h-97.011719c-3.863281 0-7 3.132813-7 7 0 3.863282 3.136719 7 7 7zm0 0"/><path d="m233.082031 67.132812h97.011719c3.867188 0 7-3.132812 7-7 0-3.863281-3.132812-7-7-7h-97.011719c-3.863281 0-7 3.136719-7 7 0 3.867188 3.136719 7 7 7zm0 0"/><path d="m144.855469 178.492188c2.335937 1.199218 5.140625.992187 7.273437-.539063l34.414063-24.648437h114.441406c3.867187 0 7-3.136719 7-7v-21.539063h11.578125l34.414062 24.65625c2.132813 1.53125 4.941407 1.738281 7.273438.539063 2.335938-1.199219 3.804688-3.601563 3.804688-6.226563v-136.667969c0-3.867187-3.136719-6.9999998-7-6.9999998h-152.941407c-3.867187 0-7 3.1328128-7 6.9999998v21.527344h-50.058593c-3.867188 0-7 3.136719-7 7v136.671875c0 2.625 1.464843 5.027344 3.800781 6.226563zm67.257812-164.425782h138.941407v116.039063l-25.164063-18.03125c-1.1875-.851563-2.613281-1.308594-4.078125-1.308594h-19.148438c-1.101562-.28125-2.253906-.28125-3.351562 0h-87.199219zm-57.058593 28.527344h43.058593v75.171875c0 3.863281 3.132813 7 7 7h88.871094v14.539063h-109.691406c-1.460938 0-2.886719.457031-4.078125 1.308593l-25.160156 18.027344zm0 0"/></g></svg>