<?xml version="1.0" encoding="UTF-8"?>
<svg width="200px" height="145px" viewBox="0 0 200 145" version="1.1" xmlns="http://www.w3.org/2000/svg" xmlns:xlink="http://www.w3.org/1999/xlink">
    <!-- Generator: Sketch 46.2 (44496) - http://www.bohemiancoding.com/sketch -->
    <title>eduAPP_colour</title>
    <desc>Created with Sketch.</desc>
    <defs>
        <polygon id="path-1" points="27.7204776 34.5789474 1.59288462 34.5789474 1.59288462 0.298147368 27.7204776 0.298147368"></polygon>
        <polygon id="path-3" points="26.1307692 0.298147368 26.1307692 34.5789474 0.00596153846 34.5789474 0.00596153846 0.298147368 26.1307692 0.298147368"></polygon>
    </defs>
    <g id="Page-1" stroke="none" stroke-width="1" fill="none" fill-rule="evenodd">
        <g id="eduAPP_colour">
            <path d="M133.715385,144.238971 C132.5,144.238971 131.284615,143.510892 130.8,142.294866 L128.976923,137.553708 L113.425,137.553708 L111.601923,142.294866 C111.115385,143.510892 109.9,144.238971 108.684615,144.238971 C106.740385,144.238971 105.403846,142.659866 105.403846,140.957813 C105.403846,140.592813 105.403846,140.227813 105.648077,139.864734 L116.219231,112.875866 C116.948077,110.929839 118.892308,109.715734 120.957692,109.715734 C123.144231,109.594708 125.209615,110.929839 126.059615,112.875866 L136.753846,139.864734 C136.875,140.227813 136.996154,140.592813 136.996154,140.957813 C136.996154,142.659866 135.659615,144.238971 133.715385,144.238971 L133.715385,144.238971 Z M121.2,116.035997 L115.125,132.08255 L127.153846,132.08255 L121.2,116.035997 Z" id="Fill-1" fill="#DE4747"></path>
            <g id="Group-5" transform="translate(140.384615, 109.782395)">
                <mask id="mask-2" fill="white">
                    <use xlink:href="#path-1"></use>
                </mask>
                <g id="Clip-4"></g>
                <path d="M16.6601923,21.5718842 L7.66788462,21.5718842 L7.66788462,31.5383053 C7.66788462,33.1212526 6.33134615,34.5793316 4.51019231,34.5793316 C2.92942308,34.5793316 1.59288462,33.2403579 1.59288462,31.5383053 L1.59288462,3.94430526 C1.59288462,2.0002 3.17365385,0.298147368 5.23903846,0.298147368 L16.6601923,0.298147368 C23.8294231,0.298147368 27.7178846,5.16033158 27.7178846,10.9945684 C27.8390385,16.7097 23.7082692,21.5718842 16.6601923,21.5718842 M15.8101923,5.52341053 L7.66788462,5.52341053 L7.66788462,16.2217526 L15.8101923,16.2217526 C19.0909615,16.2217526 21.5198077,14.0336737 21.5198077,10.8735421 C21.5198077,7.59238421 19.2121154,5.52341053 15.8101923,5.52341053" id="Fill-3" fill="#DE4747" mask="url(#mask-2)"></path>
            </g>
            <g id="Group-8" transform="translate(173.076923, 109.782395)">
                <mask id="mask-4" fill="white">
                    <use xlink:href="#path-3"></use>
                </mask>
                <g id="Clip-7"></g>
                <path d="M15.0732692,21.5718842 L6.08096154,21.5718842 L6.08096154,31.5383053 C6.08096154,33.1212526 4.74442308,34.5793316 2.92326923,34.5793316 C1.3425,34.5793316 0.00596153846,33.2403579 0.00596153846,31.5383053 L0.00596153846,3.94430526 C0.00596153846,2.0002 1.58673077,0.298147368 3.65211538,0.298147368 L15.0732692,0.298147368 C22.2425,0.298147368 26.1309615,5.16033158 26.1309615,10.9945684 C26.1309615,16.7097 22.1213462,21.5718842 15.0732692,21.5718842 M14.2232692,5.52341053 L6.08096154,5.52341053 L6.08096154,16.2217526 L14.2232692,16.2217526 C17.5040385,16.2217526 19.9328846,14.0336737 19.9328846,10.8735421 C19.9328846,7.59238421 17.6251923,5.52341053 14.2232692,5.52341053" id="Fill-6" fill="#DE4747" mask="url(#mask-4)"></path>
            </g>
            <g id="Group-15" opacity="0.699999988" transform="translate(0.000000, 109.782395)" fill="#DE4747">
                <path d="M0.000192307692,32.1359447 L0.000192307692,2.45376053 C0.000192307692,1.39910263 0.861730769,0.538471053 1.8675,0.538471053 L22.6828846,0.538471053 C23.6405769,0.538471053 24.4059615,1.30305 24.4059615,2.25973421 C24.4059615,3.21833947 23.6405769,3.98483947 22.6828846,3.98483947 L3.78096154,3.98483947 L3.78096154,15.4266289 L20.5309615,15.4266289 C21.4867308,15.4266289 22.2540385,16.2430763 22.2540385,17.1498132 C22.2540385,18.1084184 21.4867308,18.8749184 20.5309615,18.8749184 L3.78096154,18.8749184 L3.78096154,30.6029447 L22.9232692,30.6029447 C23.8790385,30.6029447 24.6463462,31.3713658 24.6463462,32.32805 C24.6463462,33.2866553 23.8790385,34.0512342 22.9232692,34.0512342 L1.8675,34.0512342 C0.861730769,34.0512342 0.000192307692,33.1906026 0.000192307692,32.1359447" id="Fill-9"></path>
                <path d="M32.0671154,2.45337632 C32.0671154,1.39871842 32.9286538,0.538086842 33.9344231,0.538086842 L43.6959615,0.538086842 C54.2248077,0.538086842 61.4978846,7.76700789 61.4978846,17.1993763 L61.4978846,17.2935079 C61.4978846,26.7277974 54.2248077,34.05085 43.6959615,34.05085 L33.9344231,34.05085 C32.9286538,34.05085 32.0671154,33.1902184 32.0671154,32.1355605 L32.0671154,2.45337632 Z M43.6959615,30.5583763 C52.1671154,30.5583763 57.5748077,24.8105868 57.5748077,17.3895605 L57.5748077,17.2935079 C57.5748077,9.87248158 52.1671154,4.03248158 43.6959615,4.03248158 L35.8478846,4.03248158 L35.8478846,30.5583763 L43.6959615,30.5583763 Z" id="Fill-11"></path>
                <path d="M68.9694231,20.0223632 L68.9694231,2.21228421 C68.9694231,1.15954737 69.8309615,0.296994737 70.8348077,0.296994737 C71.8886538,0.296994737 72.7501923,1.15954737 72.7501923,2.21228421 L72.7501923,19.7841526 C72.7501923,27.0149947 76.6251923,31.0837842 82.9905769,31.0837842 C89.1636538,31.0837842 93.0886538,27.3473368 93.0886538,20.0223632 L93.0886538,2.21228421 C93.0886538,1.15954737 93.9482692,0.296994737 95.0021154,0.296994737 C96.0059615,0.296994737 96.8694231,1.15954737 96.8694231,2.21228421 L96.8694231,19.7361263 C96.8694231,29.5046789 91.2694231,34.5781789 82.8944231,34.5781789 C74.6155769,34.5781789 68.9694231,29.5046789 68.9694231,20.0223632" id="Fill-13"></path>
            </g>
            <path d="M78.1836538,76.7750605 L93.1932692,76.7750605 C95.5471154,76.7750605 97.3125,75.0096132 97.3125,72.7523763 L97.3125,48.0841395 C97.3125,45.9248763 95.5471154,44.1594289 93.3875,44.1594289 L68.9278846,44.1594289 C66.4778846,44.1594289 64.7125,45.9248763 64.7125,48.0841395 L64.7125,72.7523763 C64.7125,73.8204816 65.1067308,74.7790868 65.7625,75.4898763 C65.8240385,75.5744026 65.9009615,75.6570079 65.9913462,75.7396132 L74.1894231,83.1164553 C75.7298077,84.5015342 78.1836538,83.4084553 78.1836538,81.3337184 L78.1836538,76.7750605 Z M134.495192,63.2969553 L134.495192,48.2820079 C134.495192,45.9248763 132.729808,44.1594289 130.474038,44.1594289 L105.818269,44.1594289 C103.660577,44.1594289 101.895192,45.9248763 101.895192,48.0841395 L101.895192,72.55835 C101.895192,75.0096132 103.660577,76.7750605 105.818269,76.7750605 L130.474038,76.7750605 C131.541346,76.7750605 132.499038,76.3793237 133.210577,75.7242447 C133.295192,75.6627711 133.377885,75.58785 133.458654,75.4956395 L140.831731,67.2927447 C142.218269,65.7520605 141.124038,63.2969553 139.052885,63.2969553 L134.495192,63.2969553 Z M121.024038,6.95824474 L106.014423,6.95824474 C103.660577,6.95824474 101.895192,8.72369211 101.895192,10.9809289 L101.895192,35.6510868 C101.895192,37.8084289 103.660577,39.5738763 105.818269,39.5738763 L130.279808,39.5738763 C132.729808,39.5738763 134.495192,37.8084289 134.495192,35.6510868 L134.495192,10.9809289 C134.495192,9.91282368 134.099038,8.95421842 133.443269,8.24150789 C133.381731,8.15890263 133.306731,8.07629737 133.216346,7.99369211 L125.018269,0.618771053 C123.477885,-0.766307895 121.024038,0.326771053 121.024038,2.39958684 L121.024038,6.95824474 Z M64.7125,20.43635 L64.7125,35.4532184 C64.7125,37.8084289 66.4778846,39.5738763 68.7336538,39.5738763 L93.3894231,39.5738763 C95.5471154,39.5738763 97.3105769,37.8084289 97.3105769,35.6491658 L97.3105769,11.1768763 C97.3105769,8.72369211 95.5471154,6.95824474 93.3894231,6.95824474 L68.7336538,6.95824474 C67.6663462,6.95824474 66.7086538,7.35398158 65.9951923,8.00906053 C65.9125,8.07053421 65.8298077,8.14737632 65.7471154,8.23766579 L58.3759615,16.4405605 C56.9894231,17.9831658 58.0836538,20.43635 60.1548077,20.43635 L64.7125,20.43635 Z M89.8086538,69.2618237 L72.2163462,69.2618237 L72.2163462,51.6707447 L72.5586538,51.6688237 L89.8086538,51.6688237 L89.8086538,69.2618237 Z" id="Fill-16" fill="#DE4747"></path>
        </g>
    </g>
</svg>