<svg height="488pt" viewBox="-72 0 488 488" width="488pt" xmlns="http://www.w3.org/2000/svg"><path d="m299.46875 277.320312c0-10.699218 8.109375-19.378906 18.101562-19.378906h.398438c9.980469 0 18.082031 8.636719 18.101562 19.328125.078126 34.96875.03125 38.402344-.019531 90.628907-.019531 29.332031-22.222656 53.082031-49.601562 53.082031h-58.777344c-17.992187 0-34.570313-10.429688-43.332031-27.261719l-4.339844-8.339844-48.058594-92.339844 5.46875-4.539062c11.339844-10.421875 28.390625-9.140625 38.25 2.871094l14.667969 17.847656.082031-122.828125c.011719-10.699219 8.109375-19.371094 18.101563-19.371094h.007812c9.992188 0 18.101563 8.679688 18.101563 19.390625v74.328125c.238281-10.46875 8.25-18.878906 18.089844-18.878906h.417968c10 0 18.101563 8.679687 18.101563 19.390625v6.238281c0-10.289062 7.480469-18.707031 16.941406-19.339843.382813-.035157.769531-.050782 1.15625-.046876h.042969c10 0 18.097656 8.679688 18.097656 19.386719zm0 0" fill="#f7caa5"/><path d="m280.171875 420.980469v18.648437c0 22.09375-17.910156 40-40 40h-192.292969c-22.089844 0-40-17.90625-40-40v-54.25h172.121094l4.339844 8.339844c8.761718 16.832031 25.339844 27.261719 43.332031 27.261719zm-115.203125 11.519531c0-11.566406-9.382812-20.941406-20.949219-20.941406-11.566406.003906-20.941406 9.382812-20.941406 20.953125.003906 11.566406 9.382813 20.941406 20.953125 20.9375 11.566406-.003907 20.941406-9.382813 20.9375-20.949219zm0 0" fill="#00acea"/><path d="m280.171875 248.140625v.007813c-9.460937.632812-16.941406 9.050781-16.941406 19.339843v-6.238281c0-10.710938-8.101563-19.390625-18.101563-19.390625h-.417968c-9.839844 0-17.851563 8.410156-18.089844 18.878906v-74.328125c0-10.710937-8.109375-19.390625-18.101563-19.390625h-.007812c-9.992188 0-18.089844 8.671875-18.101563 19.371094l-.082031 122.828125-14.667969-17.847656c-9.859375-12.011719-26.910156-13.292969-38.25-2.871094l-5.46875 4.539062 48.058594 92.339844h-172.121094v-298.46875h272.292969zm0 0" fill="#00efd1"/><path d="m280.171875 48.371094v38.539062h-272.292969v-38.539062c0-22.09375 17.910156-40 40-40h192.292969c22.089844 0 40 17.90625 40 40zm0 0" fill="#00acea"/><path d="m144.03125 411.558594c11.566406.003906 20.941406 9.382812 20.9375 20.953125 0 11.566406-9.382812 20.941406-20.949219 20.9375-11.566406-.003907-20.941406-9.382813-20.941406-20.949219.003906-11.566406 9.382813-20.941406 20.953125-20.941406zm0 0" fill="#00efd1"/><g fill="#083863"><path d="m109.988281 53h68.070313c4.417968 0 8-3.582031 8-8s-3.582032-8-8-8h-68.070313c-4.417969 0-8 3.582031-8 8s3.582031 8 8 8zm0 0"/><path d="m144.03125 403.558594c-15.988281 0-28.949219 12.957031-28.953125 28.945312 0 15.988282 12.960937 28.945313 28.949219 28.945313 15.988281 0 28.945312-12.960938 28.941406-28.949219-.019531-15.972656-12.964844-28.917969-28.9375-28.941406zm0 41.890625c-7.152344.003906-12.949219-5.789063-12.953125-12.9375 0-7.152344 5.792969-12.949219 12.941406-12.953125 7.148438 0 12.949219 5.792968 12.949219 12.941406-.007812 7.144531-5.792969 12.9375-12.9375 12.949219zm0 0"/><path d="m317.96875 250h-.398438c-4.828124-.007812-9.554687 1.363281-13.628906 3.953125-3.324218-6.300781-9.085937-10.960937-15.941406-12.898437v-192.683594c0-26.472656-21.363281-48.371094-47.828125-48.371094h-192.292969c-26.464844 0-47.878906 21.898438-47.878906 48.371094v391.257812c0 26.472656 21.414062 48.371094 47.878906 48.371094h192.292969c26.464844 0 47.828125-21.898438 47.828125-48.371094v-10.699218c31-.96875 55.941406-27.964844 55.964844-61.027344.015625-14.136719.070312-24.699219.082031-33.277344.027344-23.183594.0625-31.828125 0-57.34375-.027344-15.058594-11.714844-27.28125-26.078125-27.28125zm-51.816406-4.765625c-4.71875-6.988281-12.589844-11.195313-21.023438-11.234375h-.417968c-3.339844-.0625-6.652344.601562-9.710938 1.941406v-49.53125c0-15.101562-11.898438-27.390625-26.300781-27.390625-14.378907 0-26.179688 12.277344-26.195313 27.367188l-.113281 100.511719-.523437-.609376c-5.988282-7.445312-14.800782-12.066406-24.328126-12.757812-9.328124-.648438-18.511718 2.582031-25.378906 8.929688l-5.324218 4.417968c-2.894532 2.328125-3.730469 6.378906-1.992188 9.660156l41.972656 80.460938h-150.816406v-282h256v146.847656c-2.078125.890625-4.042969 2.027344-5.847656 3.386719zm-218.273438-229.234375h192.292969c17.640625 0 31.828125 14.726562 31.828125 32.371094v30.628906h-256v-30.628906c0-17.644532 14.234375-32.371094 31.878906-32.371094zm192.292969 456h-192.292969c-17.644531 0-31.878906-14.726562-31.878906-32.371094v-46.628906h159.144531l2.097657 4.234375c10.136718 19.46875 29.457031 31.765625 50.429687 31.765625h44.328125v10.628906c0 17.644532-14.1875 32.371094-31.828125 32.371094zm87.917969-137.394531c-.011719 8.582031-.027344 19.15625-.039063 33.300781-.019531 24.859375-18.679687 45.101562-41.601562 45.101562h-58.777344c-14.984375 0-28.867187-8.804687-36.234375-22.964843l-49.417969-94.957031.5-.421876c.097657-.085937.199219-.175781.296875-.265624 3.652344-3.449219 8.574219-5.222657 13.585938-4.898438 5.132812.402344 9.867187 2.921875 13.070312 6.953125l14.671875 17.851563c2.144531 2.609374 5.695313 3.589843 8.875 2.453124 3.179688-1.140624 5.304688-4.152343 5.304688-7.527343l.082031-122.832031c.003906-6.269532 4.726562-11.375 10.296875-11.375 5.574219 0 10.296875 5.105468 10.296875 11.386718v74.300782c0 .175781-.011719.347656-.011719.527343 0 .066407.011719.128907.011719.195313v31.816406c0 4.417969 3.582031 8 8 8s8-3.582031 8-8v-32.351562c0-6.085938 4.292969-10.894532 9.710938-10.894532h.417968c5.570313 0 9.871094 4.96875 9.871094 11.25v28.972656c0 4.417969 3.582031 8 8 8s8-3.582031 8-8v-22.738281c0-6.011719 4.273438-11 9.585938-11.355469.101562-.007812.25-.015624.351562-.027343.054688-.007813.113281-.007813.167969-.003907 5.570312 0 9.894531 5.109376 9.894531 11.386719v21.453125c0 4.417969 3.582031 8 8 8s8-3.582031 8-8v-11.621094c0-6.273437 5-11.320312 10.570312-11.320312h.398438c5.558594 0 10.089844 5.058594 10.101562 11.320312.058594 25.488282.046876 34.125.019532 57.285157zm0 0"/></g></svg>