<svg height="480pt" viewBox="-80 0 480 480" width="480pt" xmlns="http://www.w3.org/2000/svg"><path d="m8 120h144v336c0 8.835938-7.164062 16-16 16h-112c-8.835938 0-16-7.164062-16-16zm0 0" fill="#e03c48"/><path d="m24 88h112v32h-112zm0 0" fill="#f1bf55"/><path d="m72 88h-32l8-80h16zm0 0" fill="#ca8851"/><path d="m184 152h128v32h-128zm0 0" fill="#ca8851"/><path d="m272 152h-48l16-80h16zm0 0" fill="#f5b95b"/><path d="m120 88h-32l8-80h16zm0 0" fill="#ca8851"/><path d="m120 256c0 22.089844-17.910156 40-40 40s-40-17.910156-40-40 17.910156-40 40-40 40 17.910156 40 40zm0 0" fill="#f3bb5d"/><g fill="#f5b95b"><path d="m64 448h-24c-4.417969 0-8-3.582031-8-8v-40h16v32h16zm0 0"/><path d="m104 144h48v16h-48zm0 0"/><path d="m8 144h64v16h-64zm0 0"/><path d="m112 344h16v16h-16zm0 0"/><path d="m88 368h16v16h-16zm0 0"/><path d="m184 184h128v272c0 8.835938-7.164062 16-16 16h-96c-8.835938 0-16-7.164062-16-16zm0 0"/></g><path d="m184 208h72v16h-72zm0 0" fill="#f1ed78"/><path d="m272 208h16v16h-16zm0 0" fill="#f1ed78"/><path d="m184 304h128v128h-128zm0 0" fill="#dd3e4a"/><path d="m208 360h16v16h-16zm0 0" fill="#f1ed78"/><path d="m216 328h64v16h-64zm0 0" fill="#f1ed78"/><path d="m272 360h16v16h-16zm0 0" fill="#f1ed78"/><path d="m0 456c0 13.253906 10.746094 24 24 24h112c13.253906 0 24-10.746094 24-24v-336c0-4.417969-3.582031-8-8-8h-8v-24c0-4.417969-3.582031-8-8-8h-8.761719l-8-80h-30.4375l-8 80h-1.519531l-8-80h-30.480469l-8 80h-8.800781c-4.417969 0-8 3.582031-8 8v24h-8c-4.417969 0-8 3.582031-8 8zm103.238281-440h1.523438l6.398437 64h-14.320312zm-48 0h1.523438l6.398437 64h-14.320312zm-23.238281 80h96v16h-96zm112 32v16h-40v16h40v296c0 4.417969-3.582031 8-8 8h-112c-4.417969 0-8-3.582031-8-8v-296h56v-16h-56v-16zm0 0"/><path d="m32 256c0 26.507812 21.492188 48 48 48s48-21.492188 48-48-21.492188-48-48-48c-26.5.027344-47.972656 21.5-48 48zm48-32c17.671875 0 32 14.328125 32 32s-14.328125 32-32 32-32-14.328125-32-32 14.328125-32 32-32zm0 0"/><path d="m48 400h-16v40c0 4.417969 3.582031 8 8 8h24v-16h-16zm0 0"/><path d="m112 344h16v16h-16zm0 0"/><path d="m88 368h16v16h-16zm0 0"/><path d="m320 456v-304c0-4.417969-3.582031-8-8-8h-33.441406l-16-80h-29.117188l-16 80h-33.441406c-4.417969 0-8 3.582031-8 8v304c0 13.253906 10.746094 24 24 24h96c13.253906 0 24-10.746094 24-24zm-16-32h-112v-112h112zm-57.441406-344h2.882812l12.796875 64h-28.476562zm-54.558594 80h112v16h-112zm0 64h64v-16h-64v-16h112v104h-112zm0 232v-16h112v16c0 4.417969-3.582031 8-8 8h-96c-4.417969 0-8-3.582031-8-8zm0 0"/><path d="m272 208h16v16h-16zm0 0"/><path d="m208 360h16v16h-16zm0 0"/><path d="m216 328h64v16h-64zm0 0"/><path d="m272 360h16v16h-16zm0 0"/></svg>