<svg height="512pt" viewBox="0 -96 512.002 512" width="512pt" xmlns="http://www.w3.org/2000/svg"><path d="m421.160156 303.351562h-374.578125c-9.0625 0-16.40625-7.34375-16.40625-16.40625v-263.035156c0-9.0625 7.34375-16.410156 16.40625-16.410156h374.578125c9.0625 0 16.410156 7.347656 16.410156 16.410156v263.035156c0 9.0625-7.347656 16.40625-16.410156 16.40625zm0 0" fill="#395f80"/><path d="m421.160156 7.5h-50.332031c9.0625 0 16.40625 7.347656 16.40625 16.410156v263.035156c0 9.0625-7.34375 16.40625-16.40625 16.40625h50.332031c9.0625 0 16.410156-7.34375 16.410156-16.40625v-263.035156c0-9.0625-7.347656-16.410156-16.410156-16.410156zm0 0" fill="#1d4859"/><path d="m57.613281 240.523438v-204.589844c0-1.347656 1.089844-2.441406 2.4375-2.441406h347.644531c1.34375 0 2.4375 1.09375 2.4375 2.441406v204.589844c0 1.347656-1.09375 2.441406-2.4375 2.441406h-347.644531c-1.347656 0-2.4375-1.09375-2.4375-2.441406zm0 0" fill="#24d9de"/><path d="m407.695312 33.492188h-50.335937c1.347656 0 2.441406 1.09375 2.441406 2.441406v204.589844c0 1.347656-1.09375 2.441406-2.441406 2.441406h50.332031c1.347656 0 2.441406-1.09375 2.441406-2.441406v-204.589844c0-1.347656-1.09375-2.441406-2.4375-2.441406zm0 0" fill="#11b9c1"/><path d="m7.5 280.03125c0 17.910156 14.519531 32.433594 32.433594 32.433594h387.957031c17.914063 0 32.433594-14.523438 32.433594-32.433594 0-5.5-4.460938-9.957031-9.957031-9.957031h-432.910157c-5.5 0-9.957031 4.457031-9.957031 9.957031zm0 0" fill="#2c5871"/><path d="m450.367188 270.074219h-40.378907v9.957031c0 17.910156-14.519531 32.429688-32.429687 32.429688h50.332031c17.914063 0 32.433594-14.519532 32.433594-32.429688 0-5.5-4.457031-9.957031-9.957031-9.957031zm0 0" fill="#234d60"/><path d="m266.472656 290.351562h-65.121094c-10.699218 0-19.375 8.671876-19.375 19.371094 0 .925782.046876 1.839844.136719 2.742188h103.597657c.085937-.902344.132812-1.816406.132812-2.742188 0-10.699218-8.671875-19.371094-19.371094-19.371094zm0 0" fill="#baced8"/><path d="m294.535156 124.945312h-4.414062c-2.609375 0-4.914063-1.683593-5.738282-4.160156-.800781-2.398437-1.765624-4.722656-2.882812-6.957031-1.167969-2.339844-.734375-5.160156 1.113281-7.011719l3.121094-3.117187c2.359375-2.359375 2.359375-6.1875 0-8.546875l-9.386719-9.386719c-2.359375-2.359375-6.1875-2.359375-8.546875 0l-3.121093 3.121094c-1.851563 1.847656-4.671876 2.28125-7.011719 1.109375-2.230469-1.113282-4.554688-2.082032-6.953125-2.878906-2.480469-.824219-4.164063-3.128907-4.164063-5.738282v-4.414062c0-3.335938-2.703125-6.042969-6.042969-6.042969h-13.273437c-3.335937 0-6.042969 2.703125-6.042969 6.042969v4.414062c0 2.609375-1.683594 4.914063-4.164062 5.738282-2.398438.800781-4.722656 1.765624-6.953125 2.878906-2.339844 1.171875-5.164063.738281-7.011719-1.109375l-3.121094-3.121094c-2.359375-2.359375-6.1875-2.359375-8.546875 0l-9.382812 9.386719c-2.363281 2.359375-2.363281 6.1875 0 8.546875l3.117187 3.117187c1.851563 1.851563 2.285156 4.671875 1.113282 7.011719-1.117188 2.234375-2.082032 4.558594-2.878907 6.957031-.828125 2.476563-3.128906 4.160156-5.742187 4.160156h-4.410156c-3.339844 0-6.046876 2.707032-6.046876 6.046876v13.269531c0 3.339843 2.707032 6.046875 6.046876 6.046875h4.410156c2.613281 0 4.914062 1.683594 5.742187 4.160156.796875 2.398438 1.761719 4.722656 2.878907 6.957031 1.167968 2.339844.738281 5.160157-1.113282 7.011719l-3.117187 3.117188c-2.363281 2.359374-2.363281 6.1875 0 8.546874l9.382812 9.386719c2.363281 2.359375 6.1875 2.359375 8.546875 0l3.121094-3.121093c1.847656-1.847657 4.671875-2.28125 7.011719-1.109376 2.230469 1.113282 4.554687 2.082032 6.953125 2.878907 2.480468.824219 4.164062 3.128906 4.164062 5.742187v4.410156c0 3.339844 2.703125 6.046876 6.042969 6.046876h13.273437c3.335938 0 6.042969-2.707032 6.042969-6.046876v-4.410156c0-2.613281 1.683594-4.917968 4.164063-5.742187 2.398437-.800781 4.722656-1.765625 6.953125-2.878907 2.339843-1.171874 5.160156-.738281 7.011719 1.109376l3.121093 3.121093c2.359375 2.359375 6.1875 2.359375 8.546875 0l9.386719-9.386719c2.359375-2.359374 2.359375-6.1875 0-8.546874l-3.121094-3.117188c-1.847656-1.851562-2.285156-4.671875-1.113281-7.011719 1.117188-2.234375 2.082031-4.558593 2.882812-6.957031.824219-2.476562 3.128907-4.160156 5.738282-4.160156h4.414062c3.335938 0 6.042969-2.707032 6.042969-6.046875v-13.269531c0-3.339844-2.707031-6.046876-6.042969-6.046876zm-60.664062 37.132813c-13.503906 0-24.449219-10.945313-24.449219-24.449219 0-13.507812 10.945313-24.453125 24.449219-24.453125s24.453125 10.945313 24.453125 24.453125c0 13.503906-10.945313 24.449219-24.453125 24.449219zm0 0" fill="#ffdf24"/><path d="m487.445312 66.308594h-132.105468c-9.417969 0-17.054688 7.636718-17.054688 17.058594v71.820312c0 9.417969 7.636719 17.054688 17.054688 17.054688h4.121094c2.015624 0 3.472656 1.933593 2.910156 3.871093l-10.207032 35.386719c-.378906 1.324219 1.160157 2.359375 2.242188 1.503906l50.667969-40.105468c.535156-.425782 1.199219-.65625 1.878906-.65625h80.492187c9.417969 0 17.054688-7.636719 17.054688-17.054688v-71.820312c0-9.421876-7.636719-17.058594-17.054688-17.058594zm0 0" fill="#f9644b"/><path d="m362.371094 176.113281-10.207032 35.386719c-.378906 1.324219 1.160157 2.359375 2.242188 1.503906l50.667969-40.105468c.535156-.425782 1.199219-.65625 1.878906-.65625h-47.492187c2.015624 0 3.472656 1.933593 2.910156 3.871093zm0 0" fill="#db3f2e"/><path d="m487.445312 66.308594h-50.335937c9.421875 0 17.054687 7.636718 17.054687 17.058594v71.820312c0 9.417969-7.632812 17.054688-17.054687 17.054688h50.332031c9.421875 0 17.058594-7.636719 17.058594-17.054688v-71.820312c0-9.421876-7.636719-17.058594-17.054688-17.058594zm0 0" fill="#db3f2e"/><path d="m294.535156 124.945312h-4.414062c-2.609375 0-4.914063-1.683593-5.738282-4.160156-.800781-2.398437-1.765624-4.722656-2.882812-6.957031-1.171875-2.339844-.734375-5.160156 1.113281-7.011719l3.121094-3.117187c2.359375-2.359375 2.359375-6.1875 0-8.550781l-9.386719-9.382813c-2.359375-2.363281-6.1875-2.363281-8.546875 0l-3.121093 3.117187c-1.851563 1.851563-4.671876 2.285157-7.011719 1.113282-2.230469-1.117188-4.554688-2.082032-6.953125-2.878906-2.480469-.824219-4.164063-3.128907-4.164063-5.742188v-4.410156c0-3.339844-2.703125-6.046875-6.042969-6.046875h-13.273437c-3.335937 0-6.042969 2.707031-6.042969 6.046875v4.410156c0 .378906-.035156.75-.105468 1.109375 12.070312 8.234375 21.296874 20.328125 25.902343 34.503906 6.816407 4.339844 11.335938 11.960938 11.335938 20.636719 0 8.679688-4.519531 16.300781-11.335938 20.640625-4.605469 14.175781-13.832031 26.265625-25.902343 34.5.070312.363281.105468.730469.105468 1.109375v4.414062c0 3.335938 2.703125 6.042969 6.042969 6.042969h13.273437c3.335938 0 6.042969-2.703125 6.042969-6.042969v-4.414062c0-2.613281 1.683594-4.914062 4.164063-5.738281 2.398437-.800781 4.722656-1.765625 6.953125-2.882813 2.339843-1.167968 5.160156-.734375 7.011719 1.113282l3.121093 3.121093c2.359375 2.359375 6.1875 2.359375 8.546875 0l9.386719-9.386719c2.359375-2.359374 2.359375-6.1875 0-8.546874l-3.121094-3.121094c-1.847656-1.847656-2.285156-4.671875-1.113281-7.011719 1.117188-2.230469 2.082031-4.554687 2.882812-6.953125.824219-2.480469 3.128907-4.164062 5.738282-4.164062h4.414062c3.335938 0 6.042969-2.703126 6.042969-6.042969v-13.273438c0-3.335937-2.707031-6.042969-6.042969-6.042969zm0 0" fill="#ffc627"/><path d="m471.5 91.558594h-96.667969c-4.140625 0-7.5 3.355468-7.5 7.5 0 4.144531 3.359375 7.5 7.5 7.5h96.667969c4.144531 0 7.5-3.355469 7.5-7.5 0-4.144532-3.355469-7.5-7.5-7.5zm0 0"/><path d="m471.5 126.890625h-47.097656c-4.144532 0-7.5 3.359375-7.5 7.5 0 4.144531 3.355468 7.5 7.5 7.5h47.097656c4.144531 0 7.5-3.355469 7.5-7.5 0-4.140625-3.355469-7.5-7.5-7.5zm0 0"/><path d="m389.507812 126.890625h-14.675781c-4.140625 0-7.5 3.359375-7.5 7.5 0 4.144531 3.359375 7.5 7.5 7.5h14.675781c4.140626 0 7.5-3.355469 7.5-7.5 0-4.140625-3.359374-7.5-7.5-7.5zm0 0"/><path d="m233.871094 169.578125c17.617187 0 31.953125-14.332031 31.953125-31.949219 0-17.621094-14.335938-31.953125-31.953125-31.953125-17.617188 0-31.949219 14.332031-31.949219 31.953125 0 17.617188 14.332031 31.949219 31.949219 31.949219zm0-48.902344c9.347656 0 16.953125 7.601563 16.953125 16.949219s-7.605469 16.953125-16.953125 16.953125-16.949219-7.605469-16.949219-16.953125c0-9.34375 7.601563-16.949219 16.949219-16.949219zm0 0"/><path d="m173.210938 157.808594h3.367187c.726563 2.058594 1.566406 4.089844 2.511719 6.0625l-2.382813 2.378906c-2.558593 2.558594-3.96875 5.960938-3.96875 9.578125 0 3.621094 1.410157 7.023437 3.96875 9.578125l9.386719 9.386719c5.28125 5.277343 13.875 5.277343 19.152344 0l2.382812-2.382813c1.972656.941406 4.003906 1.785156 6.0625 2.511719v3.367187c0 7.46875 6.078125 13.546876 13.546875 13.546876h13.269531c7.46875 0 13.546876-6.078126 13.546876-13.546876v-3.367187c2.058593-.726563 4.089843-1.566406 6.058593-2.511719l2.382813 2.382813c5.28125 5.277343 13.875 5.277343 19.15625 0l9.386718-9.386719c5.277344-5.277344 5.277344-13.871094-.003906-19.15625l-2.378906-2.378906c.941406-1.972656 1.785156-4.003906 2.507812-6.0625h3.371094c7.46875 0 13.542969-6.078125 13.542969-13.546875v-13.269531c0-7.46875-6.074219-13.546876-13.542969-13.546876h-3.371094c-.722656-2.058593-1.566406-4.089843-2.507812-6.0625l2.382812-2.382812c5.277344-5.28125 5.277344-13.871094 0-19.152344l-9.386718-9.386718c-5.285156-5.277344-13.875-5.277344-19.15625 0l-2.382813 2.382812c-1.96875-.941406-4-1.785156-6.058593-2.511719v-3.367187c0-7.46875-6.078126-13.542969-13.546876-13.542969h-13.269531c-7.46875 0-13.546875 6.074219-13.546875 13.542969v3.367187c-2.058594.726563-4.089844 1.566407-6.0625 2.511719l-2.382812-2.382812c-5.277344-5.277344-13.871094-5.277344-19.152344 0l-9.382812 9.386718c-2.5625 2.558594-3.972657 5.957032-3.972657 9.578125 0 3.617188 1.410157 7.019531 3.96875 9.578125l2.382813 2.378906c-.945313 1.972657-1.785156 4.003907-2.511719 6.0625h-3.367187c-7.46875 0-13.546876 6.078126-13.546876 13.546876v13.269531c0 7.46875 6.078126 13.546875 13.546876 13.546875zm1.453124-25.363282h2.957032c5.839844 0 11.007812-3.734374 12.859375-9.292968.675781-2.035156 1.507812-4.042969 2.46875-5.964844 2.625-5.246094 1.613281-11.542969-2.515625-15.671875l-2.089844-2.089844 7.324219-7.328125 2.089843 2.089844c4.132813 4.128906 10.425782 5.140625 15.671876 2.519531 1.921874-.960937 3.929687-1.792969 5.96875-2.472656 5.558593-1.851563 9.292968-7.019531 9.292968-12.855469v-2.957031h10.359375v2.957031c0 5.839844 3.734375 11.003906 9.292969 12.855469 2.039062.679687 4.046875 1.511719 5.972656 2.472656 5.246094 2.621094 11.539063 1.609375 15.667969-2.519531l2.089844-2.089844 7.328125 7.328125-2.09375 2.089844c-4.128906 4.128906-5.140625 10.425781-2.515625 15.667969.960937 1.921875 1.792969 3.929687 2.472656 5.96875 1.847656 5.558594 7.015625 9.292968 12.855469 9.292968h2.957031v10.363282h-2.957031c-5.839844 0-11.007813 3.734375-12.855469 9.292968-.679687 2.039063-1.511719 4.046876-2.472656 5.964844-2.625 5.246094-1.613281 11.542969 2.515625 15.671875l2.09375 2.089844-7.328125 7.328125-2.089844-2.089844c-4.128906-4.128906-10.425781-5.140625-15.671875-2.519531-1.921875.960937-3.929688 1.792969-5.96875 2.472656-5.558594 1.851563-9.292969 7.019531-9.292969 12.855469v2.957031h-10.359375v-2.957031c0-5.839844-3.734375-11.003906-9.292968-12.855469-2.039063-.679687-4.046876-1.511719-5.96875-2.472656-5.246094-2.621094-11.542969-1.609375-15.671876 2.519531l-2.089843 2.089844-7.324219-7.328125 2.089844-2.089844c4.128906-4.128906 5.140625-10.425781 2.515625-15.667969-.960938-1.921874-1.792969-3.929687-2.46875-5.96875-1.851563-5.558593-7.019531-9.292968-12.859375-9.292968h-2.957032zm0 0"/><path d="m487.441406 58.808594h-42.371094v-34.898438c0-13.183594-10.726562-23.910156-23.910156-23.910156h-374.578125c-13.183593 0-23.90625 10.726562-23.90625 23.910156v238.664063h-5.21875c-9.625 0-17.457031 7.832031-17.457031 17.457031 0 22.019531 17.914062 39.933594 39.933594 39.933594h387.960937c22.015625 0 39.929688-17.914063 39.929688-39.933594 0-9.625-7.832031-17.457031-17.457031-17.457031h-5.296876v-82.832031h42.375c13.539063 0 24.558594-11.015626 24.558594-24.554688v-71.820312c-.003906-13.542969-11.019531-24.558594-24.5625-24.558594zm-449.765625-34.898438c0-4.914062 3.996094-8.910156 8.90625-8.910156h374.578125c4.914063 0 8.910156 3.996094 8.910156 8.910156v34.898438h-12.4375v-22.875c0-5.480469-4.460937-9.941406-9.941406-9.941406h-347.640625c-5.480469 0-9.9375 4.460937-9.9375 9.941406v85.40625c0 4.140625 3.355469 7.5 7.5 7.5 4.140625 0 7.5-3.359375 7.5-7.5v-80.347656h337.519531v17.816406h-47.292968c-13.539063 0-24.554688 11.015625-24.554688 24.554687v71.820313c0 12.9375 10.050782 23.566406 22.753906 24.492187l-8.578124 29.746094c-1.078126 3.734375.367187 7.707031 3.597656 9.875 1.515625 1.015625 3.246094 1.519531 4.96875 1.519531 1.960937 0 3.910156-.648437 5.53125-1.933594l43.574218-34.488281v51.070313h-337.523437v-79.230469c0-4.140625-3.355469-7.5-7.5-7.5-4.140625 0-7.5 3.359375-7.5 7.5v84.289063c0 5.480468 4.460937 9.9375 9.941406 9.9375h347.640625c5.480469 0 9.941406-4.457032 9.941406-9.9375v-60.78125h12.4375v82.832031h-392.394531zm152.800781 281.054688c1.835938-4.1875 6.019532-7.113282 10.875-7.113282h65.121094c4.855469 0 9.039063 2.929688 10.878906 7.113282zm259.890626-27.390625c1.355468 0 2.457031 1.101562 2.457031 2.457031 0 13.746094-11.1875 24.933594-24.933594 24.933594h-134.964844c-2.253906-12.554688-13.257812-22.113282-26.453125-22.113282h-65.121094c-13.195312 0-24.199218 9.558594-26.449218 22.113282h-134.96875c-13.75 0-24.933594-11.1875-24.933594-24.933594 0-1.355469 1.101562-2.457031 2.457031-2.457031zm46.632812-122.386719c0 5.269531-4.285156 9.554688-9.558594 9.554688h-80.488281c-2.363281 0-4.683594.808593-6.535156 2.273437l-35.785157 28.328125 4.945313-17.152344c.925781-3.210937.304687-6.582031-1.703125-9.25-2.007812-2.667968-5.074219-4.199218-8.414062-4.199218h-4.121094c-5.269532 0-9.554688-4.285157-9.554688-9.554688v-71.820312c0-5.269532 4.285156-9.558594 9.554688-9.558594h132.105468c5.269532 0 9.554688 4.289062 9.554688 9.558594zm0 0"/></svg>